<?xml version="1.0" encoding="UTF-8"?>
<svg width="40px" height="40px" viewBox="0 0 40 40" version="1.1" xmlns="http://www.w3.org/2000/svg" xmlns:xlink="http://www.w3.org/1999/xlink">
    <title>24C9BDE6-19BD-4E8A-B140-5618DF69CBAE</title>
    <defs>
        <polygon id="path-1" points="0 0.0324005962 13.6611476 0.0324005962 13.6611476 13.9183673 0 13.9183673"></polygon>
        <polygon id="path-3" points="0.188010204 0.0812204082 6.95895918 0.0812204082 6.95895918 6.85228163 0.188010204 6.85228163"></polygon>
    </defs>
    <g id="Page-1" stroke="none" stroke-width="1" fill="none" fill-rule="evenodd">
        <g id="Sell-Your-Car" transform="translate(-1083.000000, -4315.000000)">
            <g id="Group-2" transform="translate(251.000000, 4223.000000)">
                <g id="Logos" transform="translate(632.000000, 92.000000)">
                    <g id="Goole+-Light" transform="translate(200.000000, 0.000000)">
                        <g>
                            <circle id="Oval-Copy" fill="#EC1C24" cx="20" cy="20" r="20"></circle>
                            <g transform="translate(9.000000, 12.192141)">
                                <mask id="mask-2" fill="white">
                                    <use xlink:href="#path-1"></use>
                                </mask>
                                <g id="Clip-2"></g>
                                <path d="M9.64450816,3.61430816 L11.6483041,1.56830816 C11.6483041,1.56830816 9.23324286,-0.604304082 5.27818163,0.21845102 C1.60799796,0.981716327 0.437283673,3.54045102 0.105038776,5.56534898 C-0.212614286,7.50179796 0.152181633,10.0755735 1.71305918,11.7628388 C2.84830408,12.9901245 4.23407959,13.9183898 7.17669184,13.9183898 C10.2562429,13.9183898 13.8631204,11.3767163 13.6523245,5.63943061 L6.88216122,5.63943061 L6.88216122,8.3391449 L10.7413653,8.3391449 C10.7413653,8.3391449 10.219202,10.8956347 7.47189592,11.0601857 C5.71975306,11.1652469 3.37989592,10.5961653 2.91587551,7.79071633 C2.57150816,5.70969592 3.39291633,3.30810408 5.92403878,2.92849184 C8.45538571,2.5486551 9.64450816,3.61430816 9.64450816,3.61430816" id="Fill-1" fill="#F7F7F5" mask="url(#mask-2)"></path>
                            </g>
                        </g>
                        <g id="Group-7" transform="translate(9.000000, 12.000000)">
                            <g id="Group-6" transform="translate(15.040816, 3.334998)">
                                <mask id="mask-4" fill="white">
                                    <use xlink:href="#path-3"></use>
                                </mask>
                                <g id="Clip-5"></g>
                                <polygon id="Fill-4" fill="#F7F7F5" mask="url(#mask-4)" points="6.95907143 2.56497551 4.47531633 2.56497551 4.47531633 0.0812204082 2.67176531 0.0812204082 2.67176531 2.56497551 0.188010204 2.56497551 0.188010204 4.36852653 2.67176531 4.36852653 2.67176531 6.85228163 4.47531633 6.85228163 4.47531633 4.36852653 6.95907143 4.36852653"></polygon>
                            </g>
                        </g>
                    </g>
                </g>
            </g>
        </g>
    </g>
</svg>