<?xml version="1.0" encoding="UTF-8"?>
<svg width="50px" height="50px" viewBox="0 0 50 50" version="1.1" xmlns="http://www.w3.org/2000/svg" xmlns:xlink="http://www.w3.org/1999/xlink">
    <title>CF16E3AD-62D1-46CC-ABF6-649B08D9AE89</title>
    <g id="Page-1" stroke="none" stroke-width="1" fill="none" fill-rule="evenodd">
        <g id="Form-Validation[Inquiry-sent-successfully]" transform="translate(-1020.000000, -1816.000000)" fill="#2AC066" fill-rule="nonzero">
            <g id="Done" transform="translate(1020.000000, 1816.000000)">
                <path d="M25,0 C11.2153846,0 0,11.2144231 0,25 C0,38.7855769 11.2153846,50 25,50 C38.7846154,50 50,38.7855769 50,25 C50,11.2144231 38.7846154,0 25,0 Z M25,48.0769231 C12.2759615,48.0769231 1.92307692,37.7240385 1.92307692,25 C1.92307692,12.2759615 12.2759615,1.92307692 25,1.92307692 C37.7240385,1.92307692 48.0769231,12.2759615 48.0769231,25 C48.0769231,37.7240385 37.7240385,48.0769231 25,48.0769231 Z" id="Shape"></path>
                <path d="M37.2424518,14.3235334 L22.4645672,30.9485334 L13.5616826,23.826418 C13.1482211,23.4946873 12.5414903,23.5629565 12.2107211,23.976418 C11.8789903,24.3918027 11.946298,24.9966104 12.3607211,25.3283411 L21.9761057,33.0206488 C22.1530288,33.161995 22.3655288,33.2312257 22.5770672,33.2312257 C22.8424518,33.2312257 23.1068749,33.1216104 23.296298,32.9081488 L38.6809134,15.6004565 C39.033798,15.2043027 38.9982211,14.5956488 38.6011057,14.2437257 C38.2030288,13.8898796 37.596298,13.9254565 37.2424518,14.3235334 Z" id="Check_mark"></path>
            </g>
        </g>
    </g>
</svg>