<?xml version="1.0" encoding="UTF-8"?>
<svg width="50px" height="50px" viewBox="0 0 50 50" version="1.1" xmlns="http://www.w3.org/2000/svg" xmlns:xlink="http://www.w3.org/1999/xlink">
    <title>11BB2113-A1A9-41CA-AEAB-8C0BCD062B39</title>
    <g id="Page-1" stroke="none" stroke-width="1" fill="none" fill-rule="evenodd">
        <g id="Sell-Your-Car" transform="translate(-990.000000, -2909.000000)" fill="#EC1C24" fill-rule="nonzero">
            <g id="Our-Services" transform="translate(140.000000, 2662.000000)">
                <g id="Features" transform="translate(0.000000, 162.000000)">
                    <g id="Time" transform="translate(800.000000, 0.000000)">
                        <g id="Clock" transform="translate(50.000000, 85.000000)">
                            <path d="M25,0 C11.215,0 0,11.215 0,25 C0,38.785 11.215,50 25,50 C38.785,50 50,38.785 50,25 C50,11.215 38.785,0 25,0 Z M25,48.3333333 C12.1341667,48.3333333 1.66666667,37.8658333 1.66666667,25 C1.66666667,12.1341667 12.1341667,1.66666667 25,1.66666667 C37.8658333,1.66666667 48.3333333,12.1341667 48.3333333,25 C48.3333333,37.8658333 37.8658333,48.3333333 25,48.3333333 Z" id="Shape"></path>
                            <path d="M25.8333333,21.6841667 L25.8333333,13.2325 C25.8333333,12.7716667 25.46,12.3991667 25,12.3991667 C24.54,12.3991667 24.1666667,12.7716667 24.1666667,13.2325 L24.1666667,21.6841667 C23.0008333,21.9875 22.0883333,22.9 21.785,24.0658333 L15.8333333,24.0658333 C15.3733333,24.0658333 15,24.4383333 15,24.8991667 C15,25.36 15.3733333,25.7325 15.8333333,25.7325 L21.785,25.7325 C22.1575,27.1658333 23.4516667,28.2325 25,28.2325 C26.8383333,28.2325 28.3333333,26.7375 28.3333333,24.8991667 C28.3333333,23.35 27.2666667,22.0566667 25.8333333,21.6841667 Z M25,26.5658333 C24.0808333,26.5658333 23.3333333,25.8183333 23.3333333,24.8991667 C23.3333333,23.98 24.0808333,23.2325 25,23.2325 C25.9191667,23.2325 26.6666667,23.98 26.6666667,24.8991667 C26.6666667,25.8183333 25.9191667,26.5658333 25,26.5658333 Z" id="Shape"></path>
                            <path d="M25,8.2325 C25.46,8.2325 25.8333333,7.86 25.8333333,7.39916667 L25.8333333,6.56583333 C25.8333333,6.105 25.46,5.7325 25,5.7325 C24.54,5.7325 24.1666667,6.105 24.1666667,6.56583333 L24.1666667,7.39916667 C24.1666667,7.86 24.54,8.2325 25,8.2325 Z" id="Shape"></path>
                            <path d="M25,41.5658333 C24.54,41.5658333 24.1666667,41.9383333 24.1666667,42.3991667 L24.1666667,43.2325 C24.1666667,43.6933333 24.54,44.0658333 25,44.0658333 C25.46,44.0658333 25.8333333,43.6933333 25.8333333,43.2325 L25.8333333,42.3991667 C25.8333333,41.9383333 25.46,41.5658333 25,41.5658333 Z" id="Shape"></path>
                            <path d="M43.3333333,24.0658333 L42.5,24.0658333 C42.04,24.0658333 41.6666667,24.4383333 41.6666667,24.8991667 C41.6666667,25.36 42.04,25.7325 42.5,25.7325 L43.3333333,25.7325 C43.7933333,25.7325 44.1666667,25.36 44.1666667,24.8991667 C44.1666667,24.4383333 43.7933333,24.0658333 43.3333333,24.0658333 Z" id="Shape"></path>
                            <path d="M7.5,24.0658333 L6.66666667,24.0658333 C6.20666667,24.0658333 5.83333333,24.4383333 5.83333333,24.8991667 C5.83333333,25.36 6.20666667,25.7325 6.66666667,25.7325 L7.5,25.7325 C7.96,25.7325 8.33333333,25.36 8.33333333,24.8991667 C8.33333333,24.4383333 7.96,24.0658333 7.5,24.0658333 Z" id="Shape"></path>
                            <path d="M37.3741667,11.3458333 L36.785,11.935 C36.4591667,12.2608333 36.4591667,12.7875 36.785,13.1133333 C36.9475,13.2758333 37.1608333,13.3575 37.3741667,13.3575 C37.5875,13.3575 37.8008333,13.2758333 37.9633333,13.1133333 L38.5525,12.5241667 C38.8783333,12.1983333 38.8783333,11.6716667 38.5525,11.3458333 C38.2266667,11.02 37.7,11.0208333 37.3741667,11.3458333 Z" id="Shape"></path>
                            <path d="M12.0366667,36.6841667 L11.4475,37.2733333 C11.1216667,37.5991667 11.1216667,38.1258333 11.4475,38.4516667 C11.61,38.6141667 11.8233333,38.6958333 12.0366667,38.6958333 C12.25,38.6958333 12.4633333,38.6141667 12.6258333,38.4516667 L13.215,37.8625 C13.5408333,37.5366667 13.5408333,37.01 13.215,36.6841667 C12.8891667,36.3583333 12.3616667,36.3591667 12.0366667,36.6841667 Z" id="Shape"></path>
                            <path d="M37.9633333,36.6841667 C37.6375,36.3583333 37.1108333,36.3583333 36.785,36.6841667 C36.4591667,37.01 36.4591667,37.5366667 36.785,37.8625 L37.3741667,38.4516667 C37.5366667,38.6141667 37.75,38.6958333 37.9633333,38.6958333 C38.1766667,38.6958333 38.39,38.6141667 38.5525,38.4516667 C38.8783333,38.1258333 38.8783333,37.5991667 38.5525,37.2733333 L37.9633333,36.6841667 Z" id="Shape"></path>
                            <path d="M12.6258333,11.3458333 C12.3,11.02 11.7733333,11.02 11.4475,11.3458333 C11.1216667,11.6716667 11.1216667,12.1983333 11.4475,12.5241667 L12.0366667,13.1133333 C12.1991667,13.2758333 12.4125,13.3575 12.6258333,13.3575 C12.8391667,13.3575 13.0525,13.2758333 13.215,13.1133333 C13.5408333,12.7875 13.5408333,12.2608333 13.215,11.935 L12.6258333,11.3458333 Z" id="Shape"></path>
                        </g>
                    </g>
                </g>
            </g>
        </g>
    </g>
</svg>