<?xml version="1.0" encoding="UTF-8"?>
<svg width="40px" height="40px" viewBox="0 0 40 40" version="1.1" xmlns="http://www.w3.org/2000/svg" xmlns:xlink="http://www.w3.org/1999/xlink">
    <title>3F72D8B6-B0C6-4FDC-ACC6-CD6BC2C77647</title>
    <g id="Page-1" stroke="none" stroke-width="1" fill="none" fill-rule="evenodd">
        <g id="Sell-Your-Car" transform="translate(-883.000000, -4315.000000)">
            <g id="Group-2" transform="translate(251.000000, 4223.000000)">
                <g id="Logos" transform="translate(632.000000, 92.000000)">
                    <g id="Facebook-Light">
                        <circle id="Oval-Copy" fill="#EC1C24" cx="20" cy="20" r="20"></circle>
                        <path d="M25.3384521,13.2863232 L25.3384521,10.0314314 C25.3384521,10.0314314 22.0098095,10 21.7840378,10 C20.2796467,10 18.1170459,11.7112629 18.1170459,13.6524061 L18.1170459,17.1369729 L15,17.1369729 L15,20.8321093 L18.0747265,20.8321093 L18.0747265,30 L21.713574,30 L21.713574,20.7899954 L24.9294335,20.7899954 L25.3384521,17.1790868 L21.7558934,17.1790868 L21.7558934,14.5275538 C21.7558934,13.8905038 22.2355811,13.2676288 22.9548046,13.2676288 C23.4342869,13.2676288 25.3384521,13.2863232 25.3384521,13.2863232" fill="#F7F7F5"></path>
                    </g>
                </g>
            </g>
        </g>
    </g>
</svg>