<?xml version="1.0" encoding="UTF-8"?>
<svg width="59px" height="60px" viewBox="0 0 59 60" version="1.1" xmlns="http://www.w3.org/2000/svg" xmlns:xlink="http://www.w3.org/1999/xlink">
    <title>B4D124DD-D783-4700-9816-E57E40AE7D11</title>
    <g id="Page-1" stroke="none" stroke-width="1" fill="none" fill-rule="evenodd">
        <g id="Sell-Your-Car" transform="translate(-1051.000000, -998.000000)" fill="#fff" fill-rule="nonzero">
            <g id="Call-to-Action-#6-Copy" transform="translate(720.000000, 729.000000)">
                <g id="Content" transform="translate(100.000000, 269.000000)">
                    <g id="Title">
                        <g id="Group-24">
                            <g id="Bid_ic" transform="translate(231.000000, 0.000000)">
                                <path d="M58.5,47.2798832 L36.0770547,24.332837 L42.1179113,18.2701134 L44.198368,20.358101 L48.8794691,15.660055 L33.2758967,0 L28.5949426,4.69789839 L30.6753993,6.78588604 L13.5114108,24.0120056 L11.4309541,21.924018 L6.75,26.622064 L22.3534254,42.282119 L27.0345265,37.584073 L24.9540698,35.4960853 L30.8759129,29.5528061 L53.2988582,52.5 L58.5,47.2798832 Z M31.7154806,4.69789839 L33.2757496,3.13198147 L45.7587841,15.660055 L44.198368,17.2261196 L43.6783274,16.7041965 L43.6783274,16.7041965 L32.2358154,5.22011677 L32.2358154,5.22011677 L31.7154806,4.69789839 Z M23.9138415,37.584073 L22.3534254,39.1501375 L9.87053796,26.622064 L11.4308069,25.0559994 L11.9509947,25.5780702 L23.3936537,37.0621499 L23.9138415,37.584073 Z M15.0716797,25.5780702 L32.2356683,8.35195059 L40.5574952,16.7040488 L34.5317911,22.751565 L34.5317911,22.751565 L31.9312938,25.3616234 L23.3936537,33.9301684 L15.0716797,25.5780702 Z M34.5164915,25.8989015 L55.3944675,47.2646759 L53.3138636,49.3526635 L32.4361819,27.9868892 L34.5164915,25.8989015 Z" id="Shape"></path>
                                <path d="M25.74,48.75 L2.925,48.75 L2.925,53.25 L0,53.25 L0,60 L29.25,60 L29.25,53.25 L25.74,53.25 L25.74,48.75 Z M5.11875,51 L23.54625,51 L23.54625,53.25 L5.11875,53.25 L5.11875,51 Z M27.05625,55.5 L27.05625,57.75 L2.19375,57.75 L2.19375,55.5 L2.925,55.5 L25.74,55.5 L27.05625,55.5 Z" id="Shape"></path>
                            </g>
                        </g>
                    </g>
                </g>
            </g>
        </g>
    </g>
</svg>