<?xml version="1.0" encoding="UTF-8"?>
<svg width="40px" height="40px" viewBox="0 0 40 40" version="1.1" xmlns="http://www.w3.org/2000/svg" xmlns:xlink="http://www.w3.org/1999/xlink">
    <title>7634FB32-86E0-4F27-BBE0-AAE8B8920A70</title>
    <g id="Page-1" stroke="none" stroke-width="1" fill="none" fill-rule="evenodd">
        <g id="Sell-Your-Car" transform="translate(-1033.000000, -4315.000000)">
            <g id="Group-2" transform="translate(251.000000, 4223.000000)">
                <g id="Logos" transform="translate(632.000000, 92.000000)">
                    <g id="Instagram-light" transform="translate(150.000000, 0.000000)">
                        <circle id="Oval-Copy" fill="#EC1C24" cx="20" cy="20" r="20"></circle>
                        <g transform="translate(9.000000, 8.000000)" fill="#F7F7F5">
                            <g id="Group-3" transform="translate(0.000000, 0.043767)">
                                <path d="M6.98065631,2.69830194 C4.52032621,2.69830194 2.51887961,4.69997184 2.51887961,7.16007864 L2.51887961,15.7957971 C2.51887961,18.2561272 4.52032621,20.2580204 6.98065631,20.2580204 L15.6165981,20.2580204 C18.0767049,20.2580204 20.0783748,18.2561272 20.0783748,15.7957971 L20.0783748,7.16007864 C20.0783748,4.69997184 18.0767049,2.69830194 15.6165981,2.69830194 L6.98065631,2.69830194 Z M15.6165981,22.7768553 L6.98065631,22.7768553 C3.13161748,22.7768553 4.46601942e-05,19.6452825 4.46601942e-05,15.7957971 L4.46601942e-05,7.16007864 C4.46601942e-05,3.31103981 3.13161748,0.17946699 6.98065631,0.17946699 L15.6165981,0.17946699 C19.4656369,0.17946699 22.5972097,3.31103981 22.5972097,7.16007864 L22.5972097,15.7957971 C22.5972097,19.6452825 19.4656369,22.7768553 15.6165981,22.7768553 L15.6165981,22.7768553 Z" id="Fill-1"></path>
                            </g>
                            <path d="M11.2987165,8.01340097 C9.36426019,8.01340097 7.79043495,9.58722621 7.79043495,11.5216825 C7.79043495,13.4563621 9.36426019,15.0301874 11.2987165,15.0301874 C13.2331728,15.0301874 14.8067748,13.4563621 14.8067748,11.5216825 C14.8067748,9.58722621 13.2331728,8.01340097 11.2987165,8.01340097 M11.2987165,17.2971388 C8.11422136,17.2971388 5.5234835,14.7061777 5.5234835,11.5216825 C5.5234835,8.33741068 8.11422136,5.74644951 11.2987165,5.74644951 C14.4829883,5.74644951 17.0737262,8.33741068 17.0737262,11.5216825 C17.0737262,14.7061777 14.4829883,17.2971388 11.2987165,17.2971388" id="Fill-4"></path>
                            <path d="M18.342165,5.4107835 C18.342165,5.95005534 17.9049417,6.38727864 17.3656699,6.38727864 C16.8263981,6.38727864 16.3891748,5.95005534 16.3891748,5.4107835 C16.3891748,4.87151165 16.8263981,4.43428835 17.3656699,4.43428835 C17.9049417,4.43428835 18.342165,4.87151165 18.342165,5.4107835" id="Fill-6"></path>
                        </g>
                    </g>
                </g>
            </g>
        </g>
    </g>
</svg>