<?xml version="1.0" encoding="UTF-8"?>
<svg width="40px" height="40px" viewBox="0 0 40 40" version="1.1" xmlns="http://www.w3.org/2000/svg" xmlns:xlink="http://www.w3.org/1999/xlink">
    <title>3F269287-2415-446E-8FDA-123A0D80EA14</title>
    <g id="Page-1" stroke="none" stroke-width="1" fill="none" fill-rule="evenodd">
        <g id="Sell-Your-Car" transform="translate(-933.000000, -4315.000000)">
            <g id="Group-2" transform="translate(251.000000, 4223.000000)">
                <g id="Logos" transform="translate(632.000000, 92.000000)">
                    <g id="Twitter-light" transform="translate(50.000000, 0.000000)">
                        <circle id="Oval-Copy" fill="#EC1C24" cx="20" cy="20" r="20"></circle>
                        <path d="M27.4000828,13.2680057 C27.4000828,13.2680057 26.3029193,11.9393188 24.3842154,12.0021609 C22.1130816,12.0765791 20.003279,13.466638 20.2469298,17.0284227 C20.2469298,17.0284227 16.8260803,18.0710128 11.5017781,13.00745 C11.5017781,13.00745 9.7890565,15.7998789 12.817235,18.4309765 C12.817235,18.4309765 11.9672135,18.6667261 10.8316466,18.0338956 C10.8316466,18.0338956 10.2234384,20.3919426 14.1203808,22.1790824 C14.1203808,22.1790824 12.8049239,22.5513573 12.2092106,22.1790824 C12.2092106,22.1790824 12.5566794,24.6859659 16.0565408,25.2816792 C16.0565408,25.2816792 14.256906,27.068819 10,27.0192068 C10,27.0192068 18.8522772,31.5493472 24.9902186,25.7281885 C29.3733601,21.5708742 28.7653356,16.0233174 28.7653356,16.0233174 C28.7653356,16.0233174 30.0559865,15.6260527 30.825526,14.2236826 C30.825526,14.2236826 29.3610489,14.6828706 28.5170911,14.6082686 C28.5170911,14.6082686 30.1304047,13.6016933 30.2546188,12.4110017 C30.2546188,12.4110017 28.8770548,13.392036 27.4000828,13.2680057" fill="#F3F7F7"></path>
                    </g>
                </g>
            </g>
        </g>
    </g>
</svg>