<?xml version="1.0" encoding="UTF-8"?>
<svg width="50px" height="48px" viewBox="0 0 50 48" version="1.1" xmlns="http://www.w3.org/2000/svg" xmlns:xlink="http://www.w3.org/1999/xlink">
    <title>91B2345E-70E5-4656-8432-1F8BDA9B77D4</title>
    <g id="Page-1" stroke="none" stroke-width="1" fill="none" fill-rule="evenodd">
        <g id="Sell-Your-Car" transform="translate(-590.000000, -2910.000000)" fill="#EC1C24" fill-rule="nonzero">
            <g id="Our-Services" transform="translate(140.000000, 2662.000000)">
                <g id="Features" transform="translate(0.000000, 162.000000)">
                    <g id="Design" transform="translate(400.000000, 0.000000)">
                        <g id="Star" transform="translate(50.000000, 86.000000)">
                            <path d="M48.856,21.731 C49.839,20.773 50.186,19.367 49.762,18.06 C49.337,16.753 48.23,15.82 46.87,15.622 L34.778,13.865 C34.263,13.79 33.818,13.467 33.588,13 L28.182,2.043 C27.575,0.812 26.343,0.047 24.97,0.047 C23.598,0.047 22.366,0.812 21.759,2.043 L16.352,13 C16.122,13.467 15.676,13.79 15.161,13.865 L3.069,15.623 C1.71,15.82 0.603,16.753 0.178,18.06 C-0.246,19.367 0.101,20.773 1.084,21.731 L9.833,30.259 C10.206,30.623 10.377,31.147 10.289,31.659 L8.224,43.702 C7.992,45.055 8.537,46.396 9.648,47.204 C10.758,48.013 12.203,48.118 13.42,47.477 L24.234,41.791 C24.695,41.549 25.245,41.549 25.706,41.791 L36.521,47.477 C37.049,47.755 37.621,47.892 38.19,47.892 C38.929,47.892 39.665,47.661 40.293,47.204 C41.404,46.396 41.949,45.055 41.717,43.702 L39.651,31.66 C39.563,31.147 39.734,30.624 40.107,30.26 L48.856,21.731 Z M37.681,31.998 L39.746,44.04 C39.85,44.646 39.615,45.225 39.117,45.587 C38.618,45.948 37.997,45.992 37.452,45.708 L26.637,40.021 C26.116,39.748 25.542,39.61 24.97,39.61 C24.398,39.61 23.825,39.748 23.303,40.022 L12.49,45.708 C11.943,45.992 11.322,45.948 10.824,45.587 C10.326,45.225 10.092,44.647 10.195,44.04 L12.26,31.998 C12.459,30.836 12.074,29.65 11.23,28.828 L2.48,20.299 C2.039,19.869 1.889,19.263 2.08,18.678 C2.27,18.092 2.747,17.69 3.356,17.601 L15.447,15.844 C16.614,15.675 17.623,14.943 18.144,13.885 L23.551,2.928 C23.823,2.376 24.354,2.047 24.969,2.047 C25.585,2.047 26.115,2.376 26.388,2.928 L31.795,13.885 C32.316,14.943 33.324,15.675 34.491,15.844 L46.583,17.601 C47.192,17.69 47.669,18.092 47.859,18.678 C48.049,19.263 47.9,19.869 47.459,20.299 L38.71,28.827 C37.866,29.65 37.481,30.835 37.681,31.998 Z" id="Shape"></path>
                        </g>
                    </g>
                </g>
            </g>
        </g>
    </g>
</svg>