<?xml version="1.0" encoding="UTF-8"?>
<svg width="300px" height="75px" viewBox="0 0 300 75" version="1.1" xmlns="http://www.w3.org/2000/svg" xmlns:xlink="http://www.w3.org/1999/xlink">
    <title>EA661922-0EE0-434A-B40A-4121D9F4A0CE</title>
    <defs>
        <polygon id="path-1" points="0 74.009232 299.777735 74.009232 299.777735 0 0 0"></polygon>
    </defs>
    <g id="Page-1" stroke="none" stroke-width="1" fill="none" fill-rule="evenodd">
        <g id="Sell-Your-Car" transform="translate(-140.000000, -30.000000)">
            <g id="Logo" transform="translate(140.000000, 30.000000)">
                <path d="M201.390908,71.7641195 C201.390908,73.0006594 200.391063,74.0091156 199.164531,74.0091156 C197.934973,74.0091156 196.936524,73.0006594 196.936524,71.7641195 C196.936524,70.5301396 197.934973,69.5235454 199.164531,69.5235454 C200.391063,69.5235454 201.390908,70.5301396 201.390908,71.7641195" id="Fill-1" fill="#EC1C24"></path>
                <path d="M196.291559,61.6000078 L189.750442,74.0091621 L194.049822,74.0091621 L196.444003,69.1975252 L196.432133,69.1975252 L198.79955,64.4743289 L199.553856,64.4743289 L201.93128,69.1975252 L201.904981,69.1975252 L204.309635,74.0091621 L208.57038,74.0091621 L202.124686,61.6000078 L196.291559,61.6000078 Z M183.726237,66.7637781 C183.333375,66.5370908 182.79505,66.3774321 182.124065,66.2941117 C181.450287,66.2224282 180.110178,66.1463227 178.123057,66.0746393 C175.750054,66.0111016 174.420884,65.9338324 174.139736,65.8605198 C173.791559,65.7627696 173.608394,65.4911637 173.608394,65.0633902 C173.608394,64.6153685 173.791559,64.3293328 174.139736,64.218782 C174.483258,64.1182389 175.455407,64.0577269 177.05851,64.0577269 C178.38256,64.0577269 179.241365,64.0851901 179.649356,64.1182389 C180.057347,64.132436 180.344313,64.1927153 180.508394,64.3018697 C180.637331,64.3723894 180.720652,64.4899224 180.771156,64.6153685 C180.820962,64.7254538 180.850287,64.96564 180.858433,65.3103258 L184.504515,65.3103258 L184.504515,64.7184717 C184.504515,63.6111016 184.285974,62.8081536 183.87263,62.3326687 C183.458821,61.8557874 182.677052,61.5397285 181.533607,61.3844919 C180.807463,61.2867417 179.534151,61.2308844 177.71623,61.2308844 C175.150753,61.2308844 173.458743,61.2941893 172.607153,61.4219628 C171.773949,61.5397285 171.158588,61.8327463 170.758278,62.2649418 C170.226237,62.8453918 169.961846,63.8322033 169.961846,65.2456245 C169.961846,66.5068348 170.190861,67.377277 170.657036,67.9186268 C170.926315,68.240737 171.307773,68.4660279 171.793964,68.6142824 C172.268518,68.7518309 172.97232,68.8351513 173.872087,68.8668037 C174.339891,68.8782079 175.337409,68.931505 176.881862,69.0022576 C178.38256,69.069519 179.347494,69.1142048 179.82135,69.1142048 C180.422048,69.1209542 180.823988,69.1975252 181.02647,69.3150582 C181.215221,69.4370132 181.315764,69.673941 181.315764,70.0605198 C181.315764,70.5634678 181.17007,70.8809232 180.893344,70.9984562 C180.720652,71.0647867 180.454864,71.1192475 180.137874,71.1367029 C179.82135,71.1467106 178.860372,71.1667261 177.280543,71.1737083 C175.766346,71.1467106 174.864251,71.1367029 174.57007,71.1192475 C174.277983,71.0964391 174.062002,71.0373235 173.872087,70.9037316 C173.613282,70.7329015 173.498076,70.3393406 173.503662,69.7274709 L169.861071,69.7274709 L169.861071,70.3032661 C169.861071,71.1969822 169.950675,71.8605198 170.125462,72.2973701 C170.310023,72.7209542 170.622358,73.0900776 171.092723,73.3442281 C171.531901,73.5925601 172.197998,73.7782855 173.093576,73.8643988 C173.978216,73.9647091 175.347882,74.0091621 177.200248,74.0091621 C179.422669,74.0091621 180.928022,73.9761133 181.754942,73.8960512 C182.510411,73.8341427 183.094119,73.6891466 183.510256,73.4838712 C183.931513,73.2769666 184.258976,72.9709154 184.504515,72.5398836 C184.807541,71.972467 184.972785,71.1164546 184.972785,69.9269279 C184.972785,69.0536928 184.872475,68.3682777 184.682793,67.8830178 C184.504515,67.4073002 184.177052,67.0384096 183.726237,66.7637781 L183.726237,66.7637781 Z M159.070613,69.0536928 L168.542374,69.0536928 L168.542374,66.31436 L159.070613,66.31436 L159.070613,64.5145927 L169.043227,64.5145927 L169.043227,61.6000078 L155.389387,61.6000078 L155.389387,74.0091621 L169.13609,74.0091621 L169.13609,71.0373235 L159.070613,71.0373235 L159.070613,69.0536928 Z M220.947184,67.1261521 C220.947184,67.4792164 220.926936,67.9432971 220.903196,68.4962839 C220.86014,69.0322808 220.814523,69.4069899 220.765881,69.6325136 C220.708394,69.8652521 220.602033,70.0535376 220.47519,70.2013266 C220.265725,70.436858 219.907075,70.5837161 219.401102,70.6435299 C218.910023,70.7212645 218.00467,70.7629247 216.726703,70.7629247 C215.111963,70.7629247 214.065803,70.6912413 213.544934,70.5460124 C213.011963,70.3837936 212.707308,70.0651746 212.612351,69.5820093 C212.53834,69.2491932 212.491559,68.4229713 212.481784,67.1261521 L212.481784,61.4219628 L208.685586,61.4219628 L208.685586,67.1261521 C208.699317,68.5668037 208.709558,69.5103258 208.733995,69.902723 C208.759597,70.3032661 208.817316,70.7429092 208.900636,71.2386424 C209.127324,72.5282467 209.886284,73.3242126 211.206144,73.6358495 C211.796369,73.7910861 212.506222,73.8688208 213.316618,73.9258417 C214.126315,73.9761133 215.275811,74.0091621 216.766967,74.0091621 C218.739891,74.0091621 220.179612,73.9647091 221.046796,73.8643988 C221.903041,73.7782855 222.578681,73.5858107 223.04346,73.2939566 C223.888534,72.8068348 224.380078,72.0585803 224.5409,71.0117223 C224.614911,70.3965943 224.6845,69.1142048 224.718479,67.1261521 L224.718479,61.4219628 L220.947184,61.4219628 L220.947184,67.1261521 Z M242.332599,64.7675795 L247.808239,64.7675795 L247.808239,74.0091621 L251.769682,74.0091621 L251.769682,64.7675795 L257.236711,64.7675795 L257.236711,61.6000078 L242.332599,61.6000078 L242.332599,64.7675795 Z M238.103041,69.0322808 C238.092102,69.7979907 237.971311,70.2832506 237.755562,70.5071451 C237.586362,70.6756478 237.264484,70.778751 236.787836,70.8106362 C236.307696,70.8795268 235.354399,70.890931 233.922824,70.890931 C232.759364,70.890931 231.958278,70.8795268 231.496292,70.8106362 C231.03896,70.7587355 230.703119,70.6553995 230.5018,70.4871296 C230.277673,70.3162995 230.125229,70.0535376 230.036323,69.6525291 C229.973251,69.2692087 229.938573,68.6098604 229.938573,67.660287 C229.938573,66.7237471 229.978836,66.054391 230.064717,65.6133514 C230.14827,65.1753375 230.309092,64.8709154 230.524841,64.6898448 C230.703119,64.5476416 231.030815,64.4396509 231.476043,64.3723894 C231.926858,64.3293328 232.73097,64.3121102 233.900248,64.3121102 C235.080931,64.3121102 235.954399,64.3293328 236.538107,64.3938014 C237.126237,64.4543134 237.480233,64.5476416 237.617316,64.6798371 C237.727168,64.752917 237.807696,64.8709154 237.830504,65.0201009 C237.868208,65.155322 237.890784,65.4367029 237.908006,65.8391078 L241.66301,65.8391078 C241.676974,65.4783631 241.688844,65.2789061 241.688844,65.2325912 C241.688844,64.2113344 241.568053,63.4316602 241.343926,62.9131187 C241.105369,62.3829403 240.7146,61.9891466 240.160217,61.7077657 C239.732211,61.5066796 239.145943,61.3844919 238.427944,61.2941893 C237.712739,61.2308844 236.554631,61.199232 234.969449,61.199232 C231.789077,61.199232 229.674414,61.3142048 228.634306,61.5469434 C227.583026,61.7852676 226.878991,62.2910085 226.545943,63.0809232 C226.390473,63.4316602 226.28993,63.924135 226.226625,64.57045 C226.178216,65.1955857 226.152614,66.2438402 226.152614,67.6830954 C226.152614,69.1540031 226.178216,70.1782855 226.226625,70.7329015 C226.293421,71.439263 226.442607,71.9754926 226.661148,72.3874399 C226.878991,72.7926377 227.22647,73.1100931 227.669139,73.3442281 C228.177673,73.6086191 228.924996,73.7910861 229.918324,73.8688208 C230.909791,73.9647091 232.582017,74.0091621 234.926393,74.0091621 C237.163708,74.0091621 238.732366,73.8960512 239.626082,73.6805353 C240.53353,73.4592009 241.154709,73.0556323 241.456338,72.445159 C241.740047,71.9007836 241.884344,71.1667261 241.884344,70.2013266 C241.884344,70.0332894 241.884344,69.6222731 241.855252,69.0322808 L238.103041,69.0322808 Z M139.617161,64.7675795 L145.096757,64.7675795 L145.096757,74.0091621 L149.048658,74.0091621 L149.048658,64.7675795 L154.516618,64.7675795 L154.516618,61.6000078 L139.617161,61.6000078 L139.617161,64.7675795 Z M67.7733282,69.0536928 L77.2253064,69.0536928 L77.2253064,66.31436 L67.7733282,66.31436 L67.7733282,64.5145927 L77.7287199,64.5145927 L77.7287199,61.6000078 L64.0881458,61.6000078 L64.0881458,74.0091621 L77.8320559,74.0091621 L77.8320559,71.0373235 L67.7733282,71.0373235 L67.7733282,69.0536928 Z M89.4617688,69.6627696 L85.7889216,61.6000078 L78.9806206,61.6000078 L78.9806206,74.0091621 L82.6855857,74.0091621 L82.5869046,64.7487277 L83.2523041,64.7487277 L87.906377,74.0091621 L91.0234445,74.0091621 L95.6768192,64.7487277 L96.2861288,64.7487277 L96.185353,74.0091621 L99.8942746,74.0091621 L99.8942746,61.6000078 L93.1111094,61.6000078 L89.4617688,69.6627696 Z M258.112971,74.0091621 L262.057192,74.0091621 L262.057192,61.6000078 L258.112971,61.6000078 L258.112971,74.0091621 Z M101.615842,74.0091621 L105.571234,74.0091621 L105.571234,61.6000078 L101.615842,61.6000078 L101.615842,74.0091621 Z M118.744934,67.0972925 C118.673483,67.3086191 118.569449,67.4550116 118.406532,67.559744 C118.280155,67.64609 118.131668,67.6963615 117.958976,67.6963615 C117.786051,67.7105586 117.233297,67.7335997 116.332599,67.7580372 L111.072242,67.7580372 L111.072242,64.7056711 L116.332599,64.7056711 C117.184655,64.7184717 117.697378,64.7184717 117.87775,64.7401164 C118.058123,64.7487277 118.205213,64.7775873 118.345322,64.8462452 C118.530582,64.9456245 118.644158,65.0850349 118.740047,65.2789061 C118.799628,65.4783631 118.842917,65.7755702 118.842917,66.1921722 C118.842917,66.6045849 118.799628,66.9076106 118.744934,67.0972925 L118.744934,67.0972925 Z M122.46014,67.6172304 C122.560915,67.1948099 122.618402,66.5370908 122.618402,65.6263848 C122.618402,64.5576493 122.534383,63.7847246 122.361691,63.2647867 C122.187603,62.7648642 121.866424,62.3701396 121.409092,62.0957409 C121.010178,61.8557874 120.616152,61.7019472 120.187215,61.6577269 C119.761303,61.6200233 118.48962,61.6000078 116.380543,61.6000078 L107.29024,61.6000078 L107.29024,74.0091621 L111.072242,74.0091621 L111.072242,70.8609077 L116.341676,70.8609077 C117.119255,70.8609077 117.628487,70.890931 117.871466,70.9267727 C118.121195,70.951443 118.306455,71.0561753 118.444469,71.1969822 C118.584577,71.3661831 118.673483,71.5789061 118.740047,71.8805353 C118.776121,72.1751823 118.799628,72.6604422 118.799628,73.3442281 L118.799628,74.0091621 L122.493654,74.0091621 L122.493654,72.8531497 C122.493654,71.7941893 122.46014,71.0717688 122.415221,70.7429092 C122.361691,70.406602 122.232521,70.1207991 122.031435,69.8852676 C121.693732,69.4875175 121.121195,69.2491932 120.344081,69.2089294 C121.010178,69.0941893 121.501257,68.9114895 121.84059,68.6412801 C122.142452,68.3882933 122.346563,68.0408146 122.46014,67.6172304 L122.46014,67.6172304 Z M295.293654,61.6000078 L295.379767,70.8609077 L294.992025,70.8609077 L288.530504,61.6000078 L281.952149,61.6000078 L281.952149,74.0091621 L285.767199,74.0091621 L285.686672,64.7487277 L286.094663,64.7487277 L292.581784,74.0091621 L299.108704,74.0091621 L299.108704,61.6000078 L295.293654,61.6000078 Z M276.579845,69.5820093 C276.499317,69.902723 276.352925,70.1482622 276.134616,70.3162995 C275.898619,70.5071451 275.528099,70.6279364 275.033995,70.6756478 C274.551296,70.7329015 273.540279,70.7629247 272.04377,70.7629247 C270.431358,70.7629247 269.357269,70.7287122 268.805912,70.6637781 C268.053002,70.5634678 267.604748,70.2013266 267.446718,69.5820093 C267.368984,69.2345306 267.335004,68.6976028 267.335004,67.9488829 C267.335004,66.6934911 267.406455,65.8605198 267.550054,65.4439178 C267.688301,65.0201009 267.998309,64.7487277 268.455407,64.6221179 C268.846175,64.5273933 270.046874,64.4743289 272.026548,64.4743289 C273.747184,64.4743289 274.853157,64.4971373 275.298386,64.57045 C275.761071,64.6307292 276.082483,64.7959736 276.277983,65.0633902 C276.439038,65.2789061 276.54796,65.5889139 276.605446,66.0111016 C276.663165,66.4076881 276.688766,67.0756478 276.688766,67.9691311 C276.688766,68.7117998 276.654088,69.2491932 276.579845,69.5820093 L276.579845,69.5820093 Z M277.501955,61.4219628 C276.499317,61.2941893 274.669294,61.2308844 272.020264,61.2308844 C269.354709,61.2308844 267.512583,61.2941893 266.521815,61.4219628 C265.084888,61.6200233 264.212118,62.3112568 263.884888,63.5003181 C263.651683,64.3018697 263.548115,65.6566408 263.548115,67.5522964 C263.548115,69.5235919 263.651683,70.9267727 263.884888,71.7439178 C264.212118,72.9308844 265.084888,73.6214197 266.521815,73.8211094 C267.512583,73.94609 269.374725,74.0091621 272.04377,74.0091621 C274.680931,74.0091621 276.499317,73.94609 277.501955,73.8211094 C278.927013,73.6214197 279.823289,72.9308844 280.148192,71.7439178 C280.357657,70.9267727 280.475423,69.5477967 280.475423,67.6100155 C280.475423,65.6868968 280.357657,64.3121102 280.148192,63.5003181 C279.823289,62.3112568 278.927013,61.6200233 277.501955,61.4219628 L277.501955,61.4219628 Z M129.448813,69.1975252 L131.825772,64.4743289 L132.573095,64.4743289 L134.94796,69.1975252 L129.448813,69.1975252 Z M129.299628,61.6000078 L122.768285,74.0091621 L127.058821,74.0091621 L128.112661,71.9007836 L136.271078,71.9007836 L137.32422,74.0091621 L141.575656,74.0091621 L135.13322,61.6000078 L129.299628,61.6000078 Z" id="Fill-3" fill="#231F20"></path>
                <path d="M121.946811,37.0284717 C121.946811,38.2696664 120.951156,39.2592708 119.72602,39.2592708 C118.489713,39.2592708 117.507091,38.2696664 117.507091,37.0284717 C117.507091,35.7816912 118.489713,34.7988363 119.72602,34.7988363 C120.951156,34.7988363 121.946811,35.7816912 121.946811,37.0284717" id="Fill-5" fill="#EC1C24"></path>
                <path d="M289.65654,41.9525679 C289.65654,42.3016757 289.637223,42.7538867 289.613483,43.3271218 C289.573452,43.8484562 289.530396,44.2280528 289.47896,44.4503181 C289.406811,44.6888751 289.320931,44.8799535 289.186175,45.0207603 C288.984856,45.2360434 288.622948,45.3915128 288.117207,45.4787898 C287.617517,45.5565244 286.726594,45.5909697 285.431404,45.5909697 C283.848084,45.5909697 282.790753,45.499038 282.267556,45.3612568 C281.960341,45.2693251 281.745291,45.1238635 281.569806,44.9432583 L281.569806,48.6794104 C281.736214,48.6994259 281.899829,48.6994259 282.049713,48.7122265 C282.856618,48.7713421 284.000062,48.799969 285.482607,48.799969 C287.444825,48.799969 288.861505,48.7566796 289.71775,48.6463615 C290.582141,48.5600155 291.24242,48.3747556 291.722793,48.1061753 C292.552506,47.6092785 293.043817,46.8507836 293.193468,45.819519 C293.279581,45.2190535 293.33986,43.9203724 293.377331,41.9525679 L293.377331,36.2870132 L289.65654,36.2870132 L289.65654,41.9525679 Z" id="Fill-7" fill="#231F20"></path>
                <mask id="mask-2" fill="white">
                    <use xlink:href="#path-1"></use>
                </mask>
                <g id="Clip-10"></g>
                <polygon id="Fill-9" fill="#231F20" mask="url(#mask-2)" points="284.031808 44.6790535 287.275485 44.6790535 287.275485 35.9080683 284.031808 35.9080683"></polygon>
                <path d="M212.855097,45.5305741 L197.232987,45.5305741 C196.267355,45.5305741 195.576121,45.4989216 195.119721,45.4316602 C194.671466,45.3711482 194.355873,45.2561753 194.162933,45.0983786 C193.969294,44.9387199 193.823832,44.6587355 193.744003,44.2810008 C193.648813,43.8972149 193.608549,43.3284019 193.608549,42.5729325 C193.608549,42.2857331 193.614135,42.0257642 193.628798,41.8004732 L189.925229,41.8004732 L189.925229,42.3218076 C189.925229,43.4349961 189.944081,44.270993 190.017393,44.835384 C190.066036,45.3913964 190.177052,45.9041195 190.322048,46.3740186 C190.691171,47.4541583 191.4364,48.136315 192.572863,48.374872 C193.106765,48.5056711 193.697455,48.5848022 194.286517,48.61436 C194.903972,48.6592785 195.892413,48.679294 197.262777,48.679294 L216.542839,48.679294 L216.542839,41.8004732 L212.855097,41.8004732 L212.855097,45.5305741 Z" id="Fill-11" fill="#231F20" mask="url(#mask-2)"></path>
                <polygon id="Fill-12" fill="#231F20" mask="url(#mask-2)" points="219.027929 48.8001552 222.282545 48.8001552 222.282545 36.4596587 219.027929 36.4596587"></polygon>
                <path d="M225.198642,49.3356633 C225.198642,50.0308534 225.173041,50.4993561 225.13813,50.7293018 C225.055043,51.1843057 224.744802,51.3970287 224.219046,51.3970287 L223.767998,51.3970287 L223.767998,53.6266641 C224.092669,53.6520326 224.437355,53.6566874 224.787626,53.6566874 C225.778627,53.6566874 226.545966,53.5514895 227.037044,53.383685 C227.542785,53.1898138 227.921683,52.8509465 228.151862,52.3880295 C228.275679,52.1282933 228.355974,51.8452832 228.392979,51.5450504 C228.439294,51.2345772 228.453026,50.664135 228.453026,49.8081226 L228.453026,41.5763926 L225.198642,41.5763926 L225.198642,49.3356633 Z" id="Fill-13" fill="#231F20" mask="url(#mask-2)"></path>
                <path d="M181.215151,41.9525679 C181.215151,42.3016757 181.206307,42.7538867 181.170233,43.3271218 C181.145795,43.8484562 181.105531,44.2280528 181.048045,44.4503181 C180.983576,44.6888751 180.885593,44.8799535 180.751071,45.0207603 C180.552545,45.2360434 180.187843,45.3915128 179.679077,45.4787898 C179.183576,45.5565244 178.29149,45.5909697 177.008169,45.5909697 C175.406695,45.5909697 174.35076,45.499038 173.83315,45.3612568 C173.300411,45.2190535 172.990869,44.8885648 172.900799,44.4100543 C172.831908,44.0870132 172.785593,43.2840652 172.766742,42.0400776 L172.766742,36.2870132 L169.043157,36.2870132 L169.043157,41.9525679 L169.043157,42.1092009 L169.043157,43.5973313 C169.043157,44.1228549 169.010807,44.4905818 168.971939,44.6888751 C168.934236,44.8885648 168.828107,45.0438014 168.706152,45.1757642 C168.381249,45.4515593 157.206307,45.5909697 155.892265,45.5909697 C155.072327,45.5909697 152.703514,45.52045 151.062009,45.417114 C151.100877,45.0337936 151.100877,44.5939178 151.100877,44.0323196 C151.100877,42.9291389 151.02384,42.1306129 150.875353,41.6164934 C150.715927,41.116571 150.424538,40.7041583 149.996299,40.3967106 C149.868061,40.3064081 149.707238,40.21564 149.546881,40.1411637 C149.519651,40.1251047 149.492653,40.1137005 149.462863,40.105322 C149.343701,40.0392242 149.220815,40.0061753 149.087455,39.9645151 C149.052079,39.9573002 149.034158,39.9573002 148.996687,39.937052 L148.971552,39.937052 C148.759294,39.8681614 148.520039,39.8190535 148.27287,39.7659891 C147.546493,39.6284407 146.441451,39.5981846 144.963561,39.5981846 L144.930279,39.5981846 C143.457277,39.5981846 142.358285,39.6284407 141.618875,39.7659891 C141.365656,39.8190535 141.145019,39.8681614 140.931133,39.937052 L140.883887,39.937052 C140.873646,39.9573002 140.834081,39.9573002 140.816625,39.9645151 C140.683499,40.0061753 140.552467,40.0392242 140.441451,40.105322 C140.403282,40.1137005 140.374189,40.1251047 140.345562,40.1411637 C140.180551,40.21564 140.04114,40.3064081 139.904988,40.3967106 C139.472793,40.7041583 139.186292,41.116571 139.029659,41.6164934 C138.870698,42.1306129 138.796455,42.9291389 138.796455,44.0323196 C138.796455,44.5939178 138.815074,45.0337936 138.831831,45.417114 C137.202894,45.52045 124.778146,45.5909697 123.951226,45.5909697 C122.618332,45.5909697 121.801187,45.4515593 121.493041,45.1757642 C121.390403,45.0968658 121.325237,44.9935299 121.275896,44.8799535 L121.275896,41.5762296 L118.015927,41.5762296 L118.015927,49.3357331 C118.015927,50.0306905 117.997075,50.4991932 117.958906,50.7291389 C117.871396,51.1843755 117.577913,51.3970985 117.039589,51.3970985 L116.600411,51.3970985 L116.600411,53.6265012 C116.934158,53.6521024 117.258829,53.6567572 117.608635,53.6567572 C118.604756,53.6567572 119.371396,53.5515593 119.867595,53.3837548 C120.372638,53.1896509 120.737572,52.8507836 120.969379,52.3880993 C121.099713,52.1283631 121.185128,51.8451202 121.223995,51.5451202 C121.255881,51.234647 121.275896,50.6642048 121.275896,49.8081924 L121.275896,48.7122265 C121.94339,48.7713421 122.739822,48.799969 123.681947,48.799969 C125.746106,48.799969 137.290171,48.692211 138.213677,48.4624981 C138.784585,48.331699 139.237727,48.081505 139.567285,47.7168037 C139.915462,48.1164158 140.392808,48.3747556 141.001187,48.5055547 C141.090791,48.5372071 141.192033,48.5600155 141.304445,48.5802638 C141.365656,48.5946936 141.427331,48.6049341 141.489705,48.6144763 C142.078766,48.7122265 142.995989,48.7713421 144.220427,48.799969 L144.303049,48.799969 L144.812281,48.799969 L144.930279,48.799969 L144.976129,48.799969 L145.082956,48.799969 L145.611505,48.799969 L145.669224,48.799969 C146.90204,48.7713421 147.818565,48.7122265 148.409721,48.6144763 C148.474888,48.6049341 148.520039,48.5946936 148.604523,48.5802638 C148.695524,48.5600155 148.807936,48.5372071 148.902428,48.5055547 C149.497541,48.3747556 149.975586,48.1164158 150.322599,47.7168037 C150.656811,48.081505 151.109255,48.331699 151.681559,48.4624981 C152.614841,48.692211 154.090403,48.799969 156.15526,48.799969 C157.861932,48.799969 169.447657,48.7122265 170.217789,48.5425601 C170.514065,48.4766951 170.782645,48.3747556 171.027021,48.2642048 C171.186447,48.331699 171.358441,48.3747556 171.545097,48.42782 C172.124383,48.5600155 172.831908,48.6591621 173.632762,48.7122265 C174.433382,48.7713421 175.569845,48.799969 177.040054,48.799969 C179.011583,48.799969 180.434546,48.7566796 181.286835,48.6463615 C182.148433,48.5600155 182.826866,48.3747556 183.288852,48.1061753 C184.122289,47.6092785 184.607781,46.8507836 184.75976,45.819519 C184.844476,45.2190535 184.900799,43.9203724 184.941063,41.9525679 L184.941063,36.2870132 L181.215151,36.2870132 L181.215151,41.9525679 Z M147.799713,44.9332506 C147.734546,45.3265787 147.628417,45.6270442 147.462708,45.819519 C147.372405,45.8942281 147.26488,45.9845306 147.135943,46.0350349 C146.730745,46.2256478 146.008557,46.3264236 144.94564,46.3264236 C143.903437,46.3264236 143.155648,46.2256478 142.759527,46.0350349 C142.631753,45.9845306 142.529814,45.8942281 142.443701,45.819519 C142.268914,45.6270442 142.16069,45.3265787 142.097386,44.9332506 C142.087145,44.7291389 142.071086,44.5066408 142.071086,44.2550504 C142.071086,43.6718076 142.132296,43.2396121 142.244011,42.9593949 C142.349209,42.6666098 142.529814,42.4727386 142.776749,42.331699 L142.795369,42.331699 C143.080008,42.2139333 143.496144,42.1306129 144.037261,42.0889527 C144.31422,42.0761521 144.605609,42.0689372 144.94564,42.0689372 C145.288231,42.0689372 145.594981,42.0761521 145.859837,42.0889527 C146.407238,42.1306129 146.822909,42.2139333 147.105221,42.331699 L147.124073,42.331699 C147.372405,42.4727386 147.554174,42.6666098 147.65751,42.9593949 C147.772017,43.2396121 147.827642,43.6718076 147.827642,44.2550504 C147.827642,44.5066408 147.818565,44.7291389 147.799713,44.9332506 L147.799713,44.9332506 Z" id="Fill-14" fill="#231F20" mask="url(#mask-2)"></path>
                <path d="M277.981443,40.3968037 C277.562281,40.0954073 276.990675,39.8812878 276.252428,39.7660822 C275.528146,39.6285337 274.434042,39.5982777 272.954057,39.5982777 C271.020465,39.5982777 269.667556,39.7116214 268.886253,39.9371451 C268.098898,40.1554538 267.547308,40.5850892 267.214259,41.2328006 C267.050411,41.5260512 266.938231,41.8907525 266.889589,42.2540574 C266.82931,42.6264391 266.803708,43.1847789 266.803708,43.9132506 C266.803708,44.4904422 266.809061,44.9836152 266.849325,45.4172071 C265.212009,45.5205431 238.350256,45.5908301 237.52031,45.5908301 C236.189744,45.5908301 235.37097,45.4514197 235.046299,45.1756245 C234.906191,45.0438945 234.813794,44.8884251 234.768177,44.6889682 C234.727913,44.4904422 234.705105,44.1227153 234.705105,43.5971916 L234.705105,36.2871063 L230.978728,36.2871063 L230.978728,43.6719007 C230.978728,44.8353607 231.030861,45.6713576 231.142343,46.2431963 C231.248472,46.7803569 231.452351,47.2386191 231.777254,47.5930799 C232.17128,48.0559969 232.75941,48.3748487 233.532568,48.5426532 C234.297114,48.7123196 235.534818,48.8014585 237.253359,48.8014585 C239.313095,48.8014585 265.283227,48.6923041 266.199984,48.4625912 C266.78346,48.3101474 267.245446,48.0729868 267.575702,47.6996742 C267.653437,47.7871839 267.72,47.8577036 267.80332,47.9238014 C268.225275,48.2640652 268.780124,48.5056478 269.478107,48.6145694 C270.181676,48.729775 271.342576,48.8014585 272.962436,48.8014585 C274.795485,48.8014585 276.096959,48.699519 276.890132,48.5056478 C277.843894,48.2812878 278.461583,47.7769434 278.777176,46.955609 C278.897967,46.6295423 278.987339,46.2674011 279.027603,45.8638324 C279.067867,45.4514197 279.081831,44.8353607 279.081831,44.0324127 C279.081831,42.9289992 279.013173,42.130706 278.857704,41.6165865 C278.70014,41.1222498 278.4155,40.7040186 277.981443,40.3968037 M275.315888,45.9343522 C274.976555,46.1871063 274.192692,46.3265167 272.962436,46.3265167 C271.893933,46.3265167 271.150101,46.2257409 270.744903,46.0348953 C270.475159,45.9040962 270.291296,45.7216292 270.201691,45.4816757 C270.103941,45.2359038 270.055299,44.8125524 270.055299,44.2551435 C270.055299,43.6719007 270.112785,43.2397052 270.224732,42.9592552 C270.336912,42.6664701 270.538464,42.4337316 270.805415,42.318526 C271.181288,42.1465322 271.905803,42.0687975 272.971513,42.0687975 C273.971358,42.0687975 274.680978,42.1465322 275.094554,42.3317921 C275.369884,42.4337316 275.565617,42.6534368 275.663367,42.9222498 C275.775081,43.1847789 275.838154,43.5971916 275.838154,44.1704267 C275.838154,45.0808999 275.663367,45.6713576 275.315888,45.9343522" id="Fill-15" fill="#231F20" mask="url(#mask-2)"></path>
                <path d="M86.89955,45.5305741 L71.2858185,45.5305741 C70.3187898,45.5305741 69.6142901,45.4989216 69.1748798,45.4316602 C68.7219705,45.3711482 68.3968348,45.2561753 68.2215826,45.0983786 C68.0181691,44.9387199 67.8738712,44.6587355 67.7747246,44.2810008 C67.6974554,43.8972149 67.6620791,43.3284019 67.6620791,42.5729325 C67.6620791,42.2857331 67.6620791,42.0257642 67.6706905,41.8004732 L63.9727075,41.8004732 L63.9727075,42.3218076 C63.9727075,43.4349961 64.0041272,44.270993 64.0539333,44.835384 C64.1142126,45.3913964 64.222436,45.9041195 64.3732506,46.3740186 C64.73609,47.4541583 65.4931885,48.136315 66.6338402,48.374872 C67.1586656,48.5056711 67.7363227,48.5848022 68.3456323,48.61436 C68.9447013,48.6592785 69.9338402,48.679294 71.3107215,48.679294 L90.5996276,48.679294 L90.5996276,41.8004732 L86.89955,41.8004732 L86.89955,45.5305741 Z" id="Fill-16" fill="#231F20" mask="url(#mask-2)"></path>
                <polygon id="Fill-17" fill="#231F20" mask="url(#mask-2)" points="111.820869 48.8001552 115.080372 48.8001552 115.080372 36.4596587 111.820869 36.4596587"></polygon>
                <polygon id="Fill-18" fill="#231F20" mask="url(#mask-2)" points="93.0521334 48.8001552 96.3046548 48.8001552 96.3046548 36.4596587 93.0521334 36.4596587"></polygon>
                <path d="M106.463344,39.2003879 C105.981109,39.132661 104.914701,39.0956555 103.246199,39.0956555 L98.656827,39.0956555 L98.656827,42.1882855 L103.254577,42.1882855 C104.397789,42.1982933 105.034794,42.238557 105.208883,42.3016292 C105.428123,42.3963538 105.586385,42.5413499 105.681342,42.7540729 C105.767455,42.9626067 105.810512,43.2840186 105.810512,43.7120248 C105.810512,44.1630721 105.775136,44.4777347 105.700194,44.6890613 C105.633631,44.8885182 105.512141,45.0337471 105.30896,45.1587277 C105.168852,45.2359969 104.994531,45.2692785 104.806478,45.3023274 C104.623313,45.3137316 104.108495,45.3265322 103.254577,45.3265322 L98.656827,45.3265322 L98.656827,48.4177657 L103.285066,48.4177657 C104.733631,48.4177657 105.725795,48.3877424 106.264119,48.3316524 C107.012141,48.2513576 107.594919,48.1063615 108.035493,47.8689682 C108.454655,47.6636928 108.789566,47.3273856 109.026959,46.9382467 C109.382118,46.3047324 109.561094,45.2359969 109.561094,43.7120248 C109.561094,42.1205586 109.343251,40.9913111 108.930605,40.3766486 C108.499573,39.7505818 107.672653,39.3581846 106.463344,39.2003879" id="Fill-19" fill="#231F20" mask="url(#mask-2)"></path>
                <path d="M77.1504344,37.0284717 C77.1504344,38.2696664 76.1470985,39.2592708 74.9166098,39.2592708 C73.6944996,39.2592708 72.6967494,38.2696664 72.6967494,37.0284717 C72.6967494,35.7816912 73.6944996,34.7988363 74.9166098,34.7988363 C76.1470985,34.7988363 77.1504344,35.7816912 77.1504344,37.0284717" id="Fill-20" fill="#231F20" mask="url(#mask-2)"></path>
                <path d="M82.2067029,37.0284717 C82.2067029,38.2696664 81.2056943,39.2592708 79.9845151,39.2592708 C78.7505353,39.2592708 77.7595345,38.2696664 77.7595345,37.0284717 C77.7595345,35.7816912 78.7505353,34.7988363 79.9845151,34.7988363 C81.2056943,34.7988363 82.2067029,35.7816912 82.2067029,37.0284717" id="Fill-21" fill="#231F20" mask="url(#mask-2)"></path>
                <path d="M203.14052,37.0685725 C203.14052,38.3053452 202.147657,39.3051901 200.902506,39.3051901 C199.687611,39.3051901 198.693584,38.3053452 198.693584,37.0685725 C198.693584,35.8245849 199.687611,34.8335842 200.902506,34.8335842 C202.147657,34.8335842 203.14052,35.8245849 203.14052,37.0685725" id="Fill-22" fill="#231F20" mask="url(#mask-2)"></path>
                <path d="M208.197137,37.0685725 C208.197137,38.3053452 207.202878,39.3051901 205.961683,39.3051901 C204.749581,39.3051901 203.746943,38.3053452 203.746943,37.0685725 C203.746943,35.8245849 204.749581,34.8335842 205.961683,34.8335842 C207.202878,34.8335842 208.197137,35.8245849 208.197137,37.0685725" id="Fill-23" fill="#231F20" mask="url(#mask-2)"></path>
                <polygon id="Fill-24" fill="#231F20" mask="url(#mask-2)" points="53.8272614 30.8417921 53.8272614 15.960256 26.9152366 -2.32738557e-05 -4.65477114e-05 15.960256 -4.65477114e-05 30.8417921 26.9152366 14.8770908"></polygon>
                <polygon id="Fill-25" fill="#EC1C24" mask="url(#mask-2)" points="53.8272614 51.9169201 53.8272614 37.0398061 26.9152366 21.0755702 -4.65477114e-05 37.0398061 -4.65477114e-05 51.9169201 26.9152366 35.9526843"></polygon>
                <polygon id="Fill-26" fill="#231F20" mask="url(#mask-2)" points="53.8272614 72.9879286 53.8272614 58.1136074 26.9152366 42.1565865 -4.65477114e-05 58.1136074 -4.65477114e-05 72.9879286 26.9152366 57.0236928"></polygon>
                <path d="M30.5111404,70.313367 C30.5111404,72.3544841 28.896633,74.0090225 26.9099767,74.0090225 C24.9330954,74.0090225 23.3160279,72.3544841 23.3160279,70.313367 C23.3160279,68.2736462 24.9330954,66.621668 26.9099767,66.621668 C28.896633,66.621668 30.5111404,68.2736462 30.5111404,70.313367" id="Fill-27" fill="#EC1C24" mask="url(#mask-2)"></path>
                <polygon id="Fill-28" fill="#231F20" mask="url(#mask-2)" points="295.845151 48.6793638 299.777502 48.6793638 299.777502 36.3418929 295.845151 36.3418929"></polygon>
            </g>
        </g>
    </g>
</svg>