<?xml version="1.0" encoding="UTF-8"?>
<svg width="40px" height="40px" viewBox="0 0 40 40" version="1.1" xmlns="http://www.w3.org/2000/svg" xmlns:xlink="http://www.w3.org/1999/xlink">
    <title>A1B3864C-B9DF-4114-941E-74D1DD60EBEA</title>
    <g id="Page-1" stroke="none" stroke-width="1" fill="none" fill-rule="evenodd">
        <g id="Sell-Your-Car" transform="translate(-983.000000, -4315.000000)">
            <g id="Group-2" transform="translate(251.000000, 4223.000000)">
                <g id="Logos" transform="translate(632.000000, 92.000000)">
                    <g id="Youtube_light" transform="translate(100.000000, 0.000000)">
                        <circle id="Oval-Copy" fill="#EC1C24" cx="20" cy="20" r="20"></circle>
                        <g transform="translate(10.000000, 13.000000)" fill="#F7F7F5" id="Fill-1">
                            <path d="M10.5620456,8.93784852 L7.45923625,10.8572739 L7.45923625,7.0184231 L7.45923625,3.17939578 L10.5620456,5.09899767 L13.6648549,7.0184231 L10.5620456,8.93784852 Z M16.3670855,0 L3.63309099,0 C1.63496153,0 0,1.63478506 0,3.63309099 L0,10.2998165 C0,12.2981224 1.63496153,13.9329075 3.63309099,13.9329075 L16.3670855,13.9329075 C18.3652149,13.9329075 20,12.2981224 20,10.2998165 L20,3.63309099 C20,1.63478506 18.3652149,0 16.3670855,0 L16.3670855,0 Z"></path>
                        </g>
                    </g>
                </g>
            </g>
        </g>
    </g>
</svg>